<svg width="0" height="0" class="hidden">
  <symbol xmlns="http://www.w3.org/2000/svg" viewBox="0 0 45 28" id="arrow">
    <path d="M42.7641 15.966H2.83082C1.49971 15.966 0.612305 15.0589 0.612305 13.6981C0.612305 12.3374 1.49971 11.4303 2.83082 11.4303H42.7641C44.0952 11.4303 44.9826 12.3374 44.9826 13.6981C44.9826 15.0589 44.0952 15.966 42.7641 15.966Z"></path>
    <path d="M31.6714 27.3052C31.0058 27.3052 30.5621 27.0784 30.1184 26.6249C29.231 25.7177 29.231 24.357 30.1184 23.4499L39.658 13.6981L30.1184 3.9464C29.231 3.03926 29.231 1.67856 30.1184 0.771418C31.0058 -0.13572 32.337 -0.13572 33.2244 0.771418L44.3169 12.1107C45.2043 13.0178 45.2043 14.3785 44.3169 15.2856L33.2244 26.6249C32.7807 27.0784 32.3369 27.3052 31.6714 27.3052Z"></path>
  </symbol>
  <symbol xmlns="http://www.w3.org/2000/svg" viewBox="0 0 11 10" id="check">
    <path d="M9.99685 0.938748C9.83447 0.943586 9.68036 1.01145 9.56716 1.12796L3.13406 7.56106L1.07595 5.50296C1.01836 5.44297 0.949379 5.39508 0.873048 5.36209C0.796718 5.3291 0.714572 5.31168 0.631422 5.31083C0.548271 5.30998 0.465788 5.32574 0.388802 5.35717C0.311816 5.3886 0.241876 5.43507 0.183077 5.49387C0.124277 5.55267 0.0778015 5.62261 0.0463708 5.6996C0.0149401 5.77658 -0.000813629 5.85907 3.23509e-05 5.94222C0.000878331 6.02537 0.0183068 6.10751 0.0512974 6.18384C0.084288 6.26017 0.132177 6.32916 0.192161 6.38675L2.69216 8.88675C2.80938 9.00391 2.96832 9.06973 3.13406 9.06973C3.29979 9.06973 3.45874 9.00391 3.57595 8.88675L10.4509 2.01175C10.5413 1.92396 10.6029 1.81093 10.6279 1.68748C10.6529 1.56403 10.64 1.43592 10.5909 1.31993C10.5418 1.20393 10.4588 1.10548 10.3528 1.03746C10.2468 0.969443 10.1227 0.935036 9.99685 0.938748Z"/>
  </symbol>
</svg>